<mxfile host="app.diagrams.net" modified="2023-08-16T10:34:54.990Z" agent="Mozilla/5.0 (Windows NT 10.0; Win64; x64) AppleWebKit/537.36 (KHTML, like Gecko) Chrome/115.0.0.0 Safari/537.36 Edg/115.0.1901.203" etag="a0wN6JrpqPSTEHKVGwc2" version="21.6.8" type="github">
  <diagram name="Page-1" id="aakdm4UoaOkQzb7u0MhU">
    <mxGraphModel dx="1434" dy="764" grid="1" gridSize="10" guides="1" tooltips="1" connect="1" arrows="1" fold="1" page="1" pageScale="1" pageWidth="827" pageHeight="1169" math="0" shadow="0">
      <root>
        <mxCell id="0" />
        <mxCell id="1" parent="0" />
        <mxCell id="XFqS4xBxRfF3aRBf4fh8-11" value="" style="rounded=1;whiteSpace=wrap;html=1;fontStyle=1" vertex="1" parent="1">
          <mxGeometry x="30" y="380" width="990" height="350" as="geometry" />
        </mxCell>
        <mxCell id="XFqS4xBxRfF3aRBf4fh8-1" value="AnalysisTestDocument" style="swimlane;fontStyle=1;align=center;verticalAlign=middle;childLayout=stackLayout;horizontal=1;startSize=29;horizontalStack=0;resizeParent=1;resizeParentMax=0;resizeLast=0;collapsible=0;marginBottom=0;html=1;whiteSpace=wrap;" vertex="1" parent="1">
          <mxGeometry x="480" y="70" width="290" height="54" as="geometry" />
        </mxCell>
        <mxCell id="XFqS4xBxRfF3aRBf4fh8-2" value="&amp;lt;&amp;lt;ITest&amp;gt;&amp;gt;" style="text;html=1;strokeColor=none;fillColor=none;align=center;verticalAlign=middle;spacingLeft=4;spacingRight=4;overflow=hidden;rotatable=0;points=[[0,0.5],[1,0.5]];portConstraint=eastwest;whiteSpace=wrap;fontStyle=1" vertex="1" parent="XFqS4xBxRfF3aRBf4fh8-1">
          <mxGeometry y="29" width="290" height="25" as="geometry" />
        </mxCell>
        <mxCell id="XFqS4xBxRfF3aRBf4fh8-5" style="edgeStyle=orthogonalEdgeStyle;rounded=0;orthogonalLoop=1;jettySize=auto;html=1;fontStyle=1" edge="1" parent="1" source="XFqS4xBxRfF3aRBf4fh8-4" target="XFqS4xBxRfF3aRBf4fh8-1">
          <mxGeometry relative="1" as="geometry" />
        </mxCell>
        <mxCell id="XFqS4xBxRfF3aRBf4fh8-4" value="Explore" style="rounded=0;whiteSpace=wrap;html=1;fontStyle=1" vertex="1" parent="1">
          <mxGeometry x="100" y="67" width="120" height="60" as="geometry" />
        </mxCell>
        <mxCell id="XFqS4xBxRfF3aRBf4fh8-6" value="TestDocuments" style="strokeWidth=2;html=1;shape=mxgraph.flowchart.database;whiteSpace=wrap;fontStyle=1" vertex="1" parent="1">
          <mxGeometry x="100" y="440" width="110" height="90" as="geometry" />
        </mxCell>
        <mxCell id="XFqS4xBxRfF3aRBf4fh8-7" value="TestDocument" style="swimlane;fontStyle=1;align=center;verticalAlign=middle;childLayout=stackLayout;horizontal=1;startSize=29;horizontalStack=0;resizeParent=1;resizeParentMax=0;resizeLast=0;collapsible=0;marginBottom=0;html=1;whiteSpace=wrap;" vertex="1" parent="1">
          <mxGeometry x="310" y="440" width="290" height="54" as="geometry" />
        </mxCell>
        <mxCell id="XFqS4xBxRfF3aRBf4fh8-8" value="&amp;lt;&amp;lt;ITestDocument&amp;gt;" style="text;html=1;strokeColor=none;fillColor=none;align=center;verticalAlign=middle;spacingLeft=4;spacingRight=4;overflow=hidden;rotatable=0;points=[[0,0.5],[1,0.5]];portConstraint=eastwest;whiteSpace=wrap;fontStyle=1" vertex="1" parent="XFqS4xBxRfF3aRBf4fh8-7">
          <mxGeometry y="29" width="290" height="25" as="geometry" />
        </mxCell>
        <mxCell id="XFqS4xBxRfF3aRBf4fh8-9" value="MultiAxisTestDocument" style="swimlane;fontStyle=1;align=center;verticalAlign=middle;childLayout=stackLayout;horizontal=1;startSize=29;horizontalStack=0;resizeParent=1;resizeParentMax=0;resizeLast=0;collapsible=0;marginBottom=0;html=1;whiteSpace=wrap;" vertex="1" parent="1">
          <mxGeometry x="630" y="440" width="290" height="54" as="geometry" />
        </mxCell>
        <mxCell id="XFqS4xBxRfF3aRBf4fh8-10" value="&amp;lt;&amp;lt;ITestDocument&amp;gt;" style="text;html=1;strokeColor=none;fillColor=none;align=center;verticalAlign=middle;spacingLeft=4;spacingRight=4;overflow=hidden;rotatable=0;points=[[0,0.5],[1,0.5]];portConstraint=eastwest;whiteSpace=wrap;fontStyle=1" vertex="1" parent="XFqS4xBxRfF3aRBf4fh8-9">
          <mxGeometry y="29" width="290" height="25" as="geometry" />
        </mxCell>
        <mxCell id="XFqS4xBxRfF3aRBf4fh8-13" value="" style="shape=flexArrow;endArrow=classic;html=1;rounded=0;endWidth=28;endSize=7.33;width=16;fontStyle=1" edge="1" parent="1">
          <mxGeometry width="50" height="50" relative="1" as="geometry">
            <mxPoint x="640" y="280" as="sourcePoint" />
            <mxPoint x="640" y="190" as="targetPoint" />
          </mxGeometry>
        </mxCell>
        <mxCell id="XFqS4xBxRfF3aRBf4fh8-14" value="" style="shape=flexArrow;endArrow=classic;html=1;rounded=0;endWidth=28;endSize=7.33;width=16;fontStyle=1" edge="1" parent="1">
          <mxGeometry width="50" height="50" relative="1" as="geometry">
            <mxPoint x="550" y="190" as="sourcePoint" />
            <mxPoint x="550" y="280" as="targetPoint" />
          </mxGeometry>
        </mxCell>
        <mxCell id="XFqS4xBxRfF3aRBf4fh8-16" value="TestDocumentAdapter" style="text;whiteSpace=wrap;fontStyle=1" vertex="1" parent="1">
          <mxGeometry x="380" y="210" width="150" height="40" as="geometry" />
        </mxCell>
        <mxCell id="XFqS4xBxRfF3aRBf4fh8-17" value="AnalysisDocumentAdapter" style="text;whiteSpace=wrap;fontStyle=1" vertex="1" parent="1">
          <mxGeometry x="670" y="220" width="170" height="40" as="geometry" />
        </mxCell>
        <mxCell id="XFqS4xBxRfF3aRBf4fh8-19" value="TraceTestDocument" style="swimlane;fontStyle=1;align=center;verticalAlign=middle;childLayout=stackLayout;horizontal=1;startSize=29;horizontalStack=0;resizeParent=1;resizeParentMax=0;resizeLast=0;collapsible=0;marginBottom=0;html=1;whiteSpace=wrap;fillColor=#dae8fc;strokeColor=#6c8ebf;" vertex="1" parent="1">
          <mxGeometry x="310" y="600" width="290" height="54" as="geometry" />
        </mxCell>
        <mxCell id="XFqS4xBxRfF3aRBf4fh8-20" value="&amp;lt;&amp;lt;ITestDocument&amp;gt;" style="text;html=1;strokeColor=none;fillColor=none;align=center;verticalAlign=middle;spacingLeft=4;spacingRight=4;overflow=hidden;rotatable=0;points=[[0,0.5],[1,0.5]];portConstraint=eastwest;whiteSpace=wrap;fontStyle=1" vertex="1" parent="XFqS4xBxRfF3aRBf4fh8-19">
          <mxGeometry y="29" width="290" height="25" as="geometry" />
        </mxCell>
        <mxCell id="XFqS4xBxRfF3aRBf4fh8-21" value="BallbarDocuments" style="strokeWidth=2;html=1;shape=mxgraph.flowchart.database;whiteSpace=wrap;fontStyle=1" vertex="1" parent="1">
          <mxGeometry x="100" y="585" width="110" height="90" as="geometry" />
        </mxCell>
        <mxCell id="XFqS4xBxRfF3aRBf4fh8-22" value="" style="endArrow=none;dashed=1;html=1;dashPattern=1 3;strokeWidth=2;rounded=0;exitX=0;exitY=0.5;exitDx=0;exitDy=0;entryX=1;entryY=0.5;entryDx=0;entryDy=0;fontStyle=1" edge="1" parent="1" source="XFqS4xBxRfF3aRBf4fh8-11" target="XFqS4xBxRfF3aRBf4fh8-11">
          <mxGeometry width="50" height="50" relative="1" as="geometry">
            <mxPoint x="40" y="570" as="sourcePoint" />
            <mxPoint x="90" y="520" as="targetPoint" />
          </mxGeometry>
        </mxCell>
        <mxCell id="XFqS4xBxRfF3aRBf4fh8-23" value="CARTO" style="text;html=1;strokeColor=none;fillColor=none;align=center;verticalAlign=middle;whiteSpace=wrap;rounded=0;fontStyle=1" vertex="1" parent="1">
          <mxGeometry x="910" y="690" width="60" height="30" as="geometry" />
        </mxCell>
      </root>
    </mxGraphModel>
  </diagram>
</mxfile>
